<svg xmlns="http://www.w3.org/2000/svg" viewBox="0 0 1024 1024" fill="currentColor">
  <path d="M213.333 170.667h-42.666V512h42.666V170.667zm128 0H256V512h85.333V170.667zm85.334 0H384V512h42.667V170.667zm-341.334 640c0 23.466 19.2 42.666 42.667 42.666v-128H85.333v85.334zm42.667-640c-23.467 0-42.667 19.2-42.667 42.666V512H128V170.667zm597.333 0h-42.666V512h42.666V170.667zm-170.666 0h-85.334V512h85.334V170.667zm384 42.666c0-23.466-19.2-42.666-42.667-42.666h-42.667V512h85.334V213.333zM640 170.667h-42.667V512H640V170.667zm170.667 0H768V512h42.667V170.667zM768 853.333h42.667v-128H768v128zm85.333 0H896c23.467 0 42.667-19.2 42.667-42.666v-85.334h-85.334v128zm85.334-298.666H85.333c-23.466 0-42.666 19.2-42.666 42.666V640c0 23.467 19.2 42.667 42.666 42.667h853.334c23.466 0 42.666-19.2 42.666-42.667v-42.667c0-23.466-19.2-42.666-42.666-42.666zm0 85.333H85.333v-42.667h853.334V640zm-256 213.333h42.666v-128h-42.666v128zm-85.334 0H640v-128h-42.667v128zm-426.666 0h42.666v-128h-42.666v128zm85.333 0h85.333v-128H256v128zm128 0h42.667v-128H384v128zm85.333 0h85.334v-128h-85.334v128z"/>
</svg>
