<svg xmlns="http://www.w3.org/2000/svg" xml:space="preserve" id="图层_1" x="0" y="0" version="1.1" viewBox="0 0 1024 1024">
    <style>
        .st0{fill:#d00}.st1{fill:#64b5f6}.st3{fill:#424242}
    </style>
    <path d="M-2233.5-3.7h1024v1024h-1024z"/>
    <path d="M-1810.8 734.9c-28.5 18.5-67 10.3-85.5-18.2L-2123.4 367c-18.5-28.5-10.3-67 18.2-85.5s67-10.3 85.5 18.2l227.1 349.7c18.4 28.5 10.3 67-18.2 85.5z" class="st0"/>
    <path d="M-1875.4 734.9c28.5 18.5 67 10.3 85.5-18.2l227.1-349.7c18.5-28.5 10.3-67-18.2-85.5s-67-10.3-85.5 18.2l-227.1 349.7c-18.5 28.5-10.3 67 18.2 85.5z" class="st1"/>
    <path d="M-1567.6 734.9c-28.5 18.5-67 10.3-85.5-18.2L-1880.2 367c-18.5-28.5-10.3-67 18.2-85.5s67-10.3 85.5 18.2l227.1 349.7c18.4 28.5 10.3 67-18.2 85.5z" class="st0"/>
    <path d="m-1389 373.1-22-6.2 15 17.1zM-1452.4 472.2l-22-6.2 15.1 17.1z" class="st1"/>
    <path d="M-1337.8 281.6c-28.5-18.5-67-10.3-85.5 18.2l-227.1 349.7c-18.5 28.5-10.3 67 18.2 85.5s67 10.3 85.5-18.2l227.1-349.7c18.4-28.5 10.3-67-18.2-85.5zM-1469.1 539c-9.7 14.8-21.8 16.7-36.3 5.6l9.7-15.1c7.4 5.3 10.7 5.2 12.7 1.7 1.6-2.9 1.8-4.7-2.4-7.4l-33.9-21.6 10.7-16.8 31.6 20.2c13.9 8.9 16.5 20 7.9 33.4zm37.4-60.3-8-2.3-10.7 16.8 5.5 6.3-10.6 16.5-39.7-51.4 10.9-17.1 63.3 14.5-10.7 16.7zm19.8-31-62.8-15.3 10.9-17.1 37.9 11.5-26.2-29.7 10.9-17.1 40 50.8-10.7 16.9zm43.6-68.1-8-2.3-10.7 16.7 5.5 6.3-10.6 16.5-39.7-51.4 10.9-17.1 63.3 14.5-10.7 16.8z" class="st1"/>
    <g>
        <path fill="#fff" d="M-.5-3.7h1024v1024H-.5z"/>
        <path d="M511.5 781.6c222.4 0 415.5 34.8 512 85.7v-871H-.5v871.1c96.5-51 289.6-85.8 512-85.8z" class="st1"/>
        <ellipse cx="717.3" cy="435.3" class="st3" rx="12.1" ry="42.7"/>
        <ellipse cx="308" cy="435.3" class="st3" rx="12.1" ry="42.7"/>
        <path fill="#fef7ee" d="M720 458.4c-1.4 0-2.8.1-4.2.2v-59.5c0-62.1-50.8-112.9-112.9-112.9H422c-62.1 0-112.9 50.8-112.9 112.9v59.4c-1.2-.1-2.4-.2-3.7-.2-20.8 0-37.7 16.9-37.7 37.7 0 20.8 16.9 37.7 37.7 37.7 1.2 0 2.5-.1 3.7-.2v60.4c0 62.1 50.8 112.9 112.9 112.9h180.9c62.1 0 112.9-50.8 112.9-112.9v-60.4c1.4.2 2.8.2 4.2.2 20.8 0 37.7-16.9 37.7-37.7 0-20.7-16.9-37.6-37.7-37.6z"/>
        <path fill="#ffeedc" d="M718.6 458.4c-1.4 0-2.8.1-4.2.2v-59.5c0-62.1-50.8-112.9-112.9-112.9h-25.7c62.1 0 112.9 50.8 112.9 112.9v59.5c1.4-.2 2.8-.2 4.2-.2 20.8 0 37.7 16.9 37.7 37.7 0 20.8-16.9 37.7-37.7 37.7-1.4 0-2.8-.1-4.2-.2V594c0 62.1-50.8 112.9-112.9 112.9h25.7c62.1 0 112.9-50.8 112.9-112.9v-60.4c1.4.2 2.8.2 4.2.2 20.8 0 37.7-16.9 37.7-37.7 0-20.8-16.9-37.7-37.7-37.7z"/>
        <path d="M797 284.2c0-26.1-11.1-49.6-28.9-66-4.4-41.8-39.8-74.3-82.8-74.3-6.2 0-12.3.7-18.2 2-13.9-14.7-33.6-23.9-55.5-23.9-7 0-13.7.9-20.1 2.7-13.3-11.2-30.4-17.9-49.1-17.9-17.4 0-33.5 5.8-46.3 15.7-12.3-8.4-27.2-13.3-43.3-13.3-21.8 0-41.5 9-55.5 23.6-9.7-4-20.3-6.2-31.4-6.2-37.9 0-69.8 25.7-79.3 60.6-35 18-58.9 54.5-58.9 96.6 0 14.6 2.9 28.4 8.1 41.1-1.1 5.7-1.7 11.6-1.7 17.6 0 49.4 40.1 89.5 89.5 89.5 14.1 0 27.4-3.3 39.2-9 15.7 8.9 33.9 14 53.3 14 30.1 0 57.3-12.2 76.9-32 14.6 10.2 32.4 16.2 51.6 16.2 29.9 0 56.4-14.5 72.8-36.9 15.8 25.7 44.2 42.8 76.5 42.8 49.6 0 89.9-40.2 89.9-89.9 0-2-.1-4-.2-6 8.6-13.8 13.4-29.8 13.4-47z"/>
        <path d="M798.9 281.2c0-26.1-11.1-49.6-28.9-66-4.4-41.8-39.8-74.3-82.8-74.3-4.3 0-8.5.3-12.6 1 37.1 5.7 66.1 35.8 70.1 73.3 17.8 16.4 28.9 39.9 28.9 66 0 17.1-4.8 33.1-13.1 46.8.1 2 .2 4 .2 6 0 45.3-33.6 82.8-77.2 89 4.1.6 8.4.9 12.7.9 49.6 0 89.9-40.2 89.9-89.9 0-2-.1-4-.2-6 8.2-13.7 13-29.7 13-46.8z" class="st3" opacity=".48"/>
        <path fill="none" stroke="#000" stroke-miterlimit="10" stroke-width="5.45" d="M798.6 284.2c0-26.1-11.1-49.6-28.9-66-4.4-41.8-39.8-74.3-82.8-74.3-6.2 0-12.3.7-18.2 2-13.9-14.7-33.6-23.9-55.5-23.9-7 0-13.7.9-20.1 2.7-13.3-11.2-30.4-17.9-49.1-17.9-17.4 0-33.5 5.8-46.3 15.7-12.3-8.4-27.2-13.3-43.3-13.3-21.8 0-41.5 9-55.5 23.6-9.7-4-20.3-6.2-31.4-6.2-37.9 0-69.8 25.7-79.3 60.6-35 18-58.9 54.5-58.9 96.6 0 14.6 2.9 28.4 8.1 41.1-1.1 5.7-1.7 11.6-1.7 17.6 0 39.7 25.9 73.4 61.8 85.1-.1 2.6-.2 5.2-.2 7.9 0 8.8.8 17 2.1 23.8-17.3 3.5-30.3 18.7-30.3 37 0 20.8 16.9 37.7 37.7 37.7 1.2 0 2.5-.1 3.7-.2v60.4c0 62.1 50.8 112.9 112.9 112.9h180.9c62.1 0 112.9-50.8 112.9-112.9v-60.4c1.4.2 2.8.2 4.2.2 20.8 0 37.7-16.9 37.7-37.7 0-18.3-13-33.6-30.3-37 1.3-6.8 2-15 2-23.8 0-5.4-.3-10.5-.8-15.3 32.6-13.5 55.5-45.6 55.5-83.1 0-2-.1-4-.2-6 8.5-13.7 13.3-29.7 13.3-46.9z"/>
        <g opacity=".7">
            <path d="m357.7 926.4-10.3-53.2h-23.3l-10.2 53.2h-.5l-9.3-53.2h-27.5L298 959h27.5l9.8-49.9h.5l9.8 49.9h27.9l21-85.8h-27zM430.4 925.5h35.4v-20.1h-35.4v-12.1h42v-20.1H402V959h71.8v-20h-43.4zM542.7 900.3l.9 19.6-30.8-46.7h-26.1V959h27.1v-27l-1.4-19.6 30.7 46.6h26.6v-85.8h-27zM613.9 925.5h35.4v-20.1h-35.4v-12.1h41.9v-20.1h-70.4V959h71.8v-20h-43.3zM724.1 960.4l24.1-11.3-13.6-26.5c7.2-4.4 12.3-14.4 12.3-23.5 0-13.8-11.3-25.2-25.2-25.2h-48v85.6h26.4v-35.3h7l17 36.2zm-23.2-72.1H724v19h-23.1v-19z" class="st0"/>
        </g>
        <circle cx="414.1" cy="487.1" r="30.5"/>
        <circle cx="619.3" cy="487.1" r="30.5"/>
        <path d="M474.3 594.2H558v9.7h-83.7z" class="st0"/>
        <path d="M309.8 489.8h4.5v17.1h-4.5zM716.7 489.8h4.5v17.1h-4.5z"/>
    </g>
</svg>
