<svg xmlns="http://www.w3.org/2000/svg" xml:space="preserve" id="图层_1" x="0" y="0" version="1.1" viewBox="0 0 1024 1024">
    <style>
        .st3{fill:#424242}
    </style>
    <ellipse cx="717.3" cy="435.3" class="st3" rx="12.1" ry="42.7"/>
    <ellipse cx="308" cy="435.3" class="st3" rx="12.1" ry="42.7"/>
    <path fill="#fef7ee" d="M720 458.4c-1.4 0-2.8.1-4.2.2v-59.5c0-62.1-50.8-112.9-112.9-112.9H422c-62.1 0-112.9 50.8-112.9 112.9v59.4a37.73 37.73 0 0 0-41.4 37.5c0 20.8 16.9 37.7 37.7 37.7 1.2 0 2.5-.1 3.7-.2v60.4c0 62.1 50.8 112.9 112.9 112.9h180.9c62.1 0 112.9-50.8 112.9-112.9v-60.4c1.4.2 2.8.2 4.2.2 20.8 0 37.7-16.9 37.7-37.7a37.7 37.7 0 0 0-37.7-37.6"/>
    <path fill="#ffeedc" d="M718.6 458.4c-1.4 0-2.8.1-4.2.2v-59.5c0-62.1-50.8-112.9-112.9-112.9h-25.7c62.1 0 112.9 50.8 112.9 112.9v59.5c1.4-.2 2.8-.2 4.2-.2 20.8 0 37.7 16.9 37.7 37.7s-16.9 37.7-37.7 37.7c-1.4 0-2.8-.1-4.2-.2V594c0 62.1-50.8 112.9-112.9 112.9h25.7c62.1 0 112.9-50.8 112.9-112.9v-60.4c1.4.2 2.8.2 4.2.2 20.8 0 37.7-16.9 37.7-37.7s-16.9-37.7-37.7-37.7"/>
    <path d="M797 284.2c0-26.1-11.1-49.6-28.9-66-4.4-41.8-39.8-74.3-82.8-74.3-6.2 0-12.3.7-18.2 2a76.13 76.13 0 0 0-55.5-23.9q-10.5 0-20.1 2.7a75.88 75.88 0 0 0-49.1-17.9c-17.4 0-33.5 5.8-46.3 15.7a76.47 76.47 0 0 0-43.3-13.3c-21.8 0-41.5 9-55.5 23.6-9.7-4-20.3-6.2-31.4-6.2-37.9 0-69.8 25.7-79.3 60.6-35 18-58.9 54.5-58.9 96.6 0 14.6 2.9 28.4 8.1 41.1-1.1 5.7-1.7 11.6-1.7 17.6 0 49.4 40.1 89.5 89.5 89.5 14.1 0 27.4-3.3 39.2-9 15.7 8.9 33.9 14 53.3 14 30.1 0 57.3-12.2 76.9-32a89.8 89.8 0 0 0 51.6 16.2 90 90 0 0 0 72.8-36.9 89.72 89.72 0 0 0 76.5 42.8c49.6 0 89.9-40.2 89.9-89.9 0-2-.1-4-.2-6a88.23 88.23 0 0 0 13.4-47"/>
    <path d="M798.9 281.2c0-26.1-11.1-49.6-28.9-66-4.4-41.8-39.8-74.3-82.8-74.3-4.3 0-8.5.3-12.6 1 37.1 5.7 66.1 35.8 70.1 73.3a89.44 89.44 0 0 1 28.9 66c0 17.1-4.8 33.1-13.1 46.8.1 2 .2 4 .2 6 0 45.3-33.6 82.8-77.2 89 4.1.6 8.4.9 12.7.9 49.6 0 89.9-40.2 89.9-89.9 0-2-.1-4-.2-6 8.2-13.7 13-29.7 13-46.8" class="st3" opacity=".48"/>
    <path fill="none" stroke="#000" stroke-miterlimit="10" stroke-width="5.45" d="M798.6 284.2c0-26.1-11.1-49.6-28.9-66-4.4-41.8-39.8-74.3-82.8-74.3-6.2 0-12.3.7-18.2 2a76.13 76.13 0 0 0-55.5-23.9q-10.5 0-20.1 2.7a75.88 75.88 0 0 0-49.1-17.9c-17.4 0-33.5 5.8-46.3 15.7a76.47 76.47 0 0 0-43.3-13.3c-21.8 0-41.5 9-55.5 23.6-9.7-4-20.3-6.2-31.4-6.2-37.9 0-69.8 25.7-79.3 60.6-35 18-58.9 54.5-58.9 96.6 0 14.6 2.9 28.4 8.1 41.1-1.1 5.7-1.7 11.6-1.7 17.6 0 39.7 25.9 73.4 61.8 85.1-.1 2.6-.2 5.2-.2 7.9 0 8.8.8 17 2.1 23.8a37.76 37.76 0 0 0-30.3 37c0 20.8 16.9 37.7 37.7 37.7 1.2 0 2.5-.1 3.7-.2v60.4c0 62.1 50.8 112.9 112.9 112.9h180.9c62.1 0 112.9-50.8 112.9-112.9v-60.4c1.4.2 2.8.2 4.2.2a37.73 37.73 0 0 0 7.4-74.7c1.3-6.8 2-15 2-23.8 0-5.4-.3-10.5-.8-15.3a89.88 89.88 0 0 0 55.5-83.1c0-2-.1-4-.2-6a88.43 88.43 0 0 0 13.3-46.9z"/>
    <circle cx="414.1" cy="487.1" r="30.5"/>
    <circle cx="619.3" cy="487.1" r="30.5"/>
    <path fill="#d00" d="M474.3 594.2H558v9.7h-83.7z"/>
    <path d="M309.8 489.8h4.5v17.1h-4.5zm406.9 0h4.5v17.1h-4.5z"/>
</svg>
