<svg xmlns="http://www.w3.org/2000/svg" xml:space="preserve" id="图层_1" x="0" y="0" version="1.1" viewBox="0 0 1024 1024">
    <style id="style1">
        .st3{fill:#424242}
    </style>
    <ellipse id="ellipse1" cx="841.699" cy="553.996" stroke-width="1.614" class="st3" rx="19.524" ry="68.9"/>
    <ellipse id="ellipse2" cx="181.264" cy="553.996" stroke-width="1.614" class="st3" rx="19.524" ry="68.9"/>
    <path id="path2" fill="#fef7ee" stroke-width="1.614" d="M846.056 591.27c-2.26 0-4.518.161-6.777.323v-96.008c0-100.203-81.97-182.172-182.173-182.172H365.211c-100.203 0-182.172 81.97-182.172 182.172v95.846a60.88 60.88 0 0 0-66.802 60.51c0 33.562 27.27 60.831 60.832 60.831 1.936 0 4.034-.161 5.97-.323v97.46c0 100.203 81.97 182.172 182.172 182.172h291.895c100.203 0 182.173-81.97 182.173-182.172v-97.46c2.259.323 4.518.323 6.777.323 33.562 0 60.831-27.27 60.831-60.832a60.83 60.83 0 0 0-60.831-60.67"/>
    <path id="path3" fill="#ffeedc" stroke-width="1.614" d="M843.797 591.27c-2.26 0-4.518.161-6.777.323v-96.008c0-100.203-81.97-182.172-182.173-182.172h-41.469c100.203 0 182.173 81.97 182.173 182.172v96.008c2.259-.323 4.518-.323 6.777-.323 33.562 0 60.831 27.27 60.831 60.832s-27.269 60.831-60.831 60.831c-2.26 0-4.518-.161-6.777-.322v97.46c0 100.202-81.97 182.172-182.173 182.172h41.47c100.202 0 182.172-81.97 182.172-182.173v-97.46c2.259.323 4.518.323 6.777.323 33.562 0 60.831-27.269 60.831-60.831s-27.27-60.832-60.831-60.832"/>
    <path id="path4" stroke-width="1.614" d="M970.3 310.186c0-42.115-17.91-80.033-46.632-106.496-7.1-67.447-64.22-119.888-133.603-119.888-10.005 0-19.847 1.129-29.367 3.227a122.84 122.84 0 0 0-89.554-38.565q-16.942 0-32.432 4.357a122.44 122.44 0 0 0-79.227-28.883c-28.076 0-54.054 9.359-74.708 25.333a123.4 123.4 0 0 0-69.868-21.46c-35.176 0-66.963 14.522-89.553 38.08-15.652-6.454-32.756-10.004-50.666-10.004-61.155 0-112.628 41.469-127.957 97.782-56.475 29.044-95.039 87.94-95.039 155.871 0 23.558 4.68 45.826 13.07 66.318-1.775 9.197-2.743 18.718-2.743 28.399 0 79.71 64.704 144.415 144.415 144.415 22.751 0 44.211-5.325 63.252-14.522 25.333 14.36 54.7 22.59 86.003 22.59 48.569 0 92.458-19.686 124.084-51.635a144.9 144.9 0 0 0 83.26 26.14 145.22 145.22 0 0 0 117.468-59.54 144.77 144.77 0 0 0 123.438 69.06c80.034 0 145.06-64.865 145.06-145.06 0-3.227-.16-6.454-.322-9.681a142.37 142.37 0 0 0 21.622-75.838"/>
    <path id="path5" stroke-width="1.614" d="M973.366 305.345c0-42.114-17.91-80.033-46.632-106.496-7.1-67.447-64.22-119.888-133.604-119.888-6.938 0-13.715.484-20.33 1.613 59.863 9.198 106.657 57.766 113.11 118.275a144.32 144.32 0 0 1 46.633 106.496c0 27.592-7.745 53.41-21.138 75.515.162 3.227.323 6.454.323 9.682 0 73.094-54.216 133.603-124.568 143.608 6.616.968 13.554 1.452 20.493 1.452 80.033 0 145.06-64.866 145.06-145.06 0-3.228-.162-6.455-.323-9.682 13.231-22.106 20.976-47.923 20.976-75.515" class="st3" opacity=".48"/>
    <path id="path6" fill="none" stroke="#000" stroke-miterlimit="10" stroke-width="8.794" d="M972.882 310.186c0-42.115-17.91-80.033-46.632-106.496-7.1-67.447-64.22-119.888-133.604-119.888-10.004 0-19.847 1.129-29.367 3.227a122.84 122.84 0 0 0-89.553-38.565q-16.942 0-32.433 4.357a122.44 122.44 0 0 0-79.226-28.883c-28.076 0-54.055 9.359-74.708 25.333a123.4 123.4 0 0 0-69.868-21.46c-35.176 0-66.963 14.522-89.553 38.08-15.652-6.454-32.756-10.004-50.667-10.004-61.154 0-112.627 41.469-127.956 97.782-56.475 29.044-95.04 87.94-95.04 155.871 0 23.558 4.68 45.826 13.07 66.318-1.774 9.197-2.742 18.718-2.742 28.399 0 64.059 41.791 118.436 99.718 137.315-.161 4.195-.322 8.39-.322 12.747 0 14.2 1.29 27.43 3.388 38.403a60.93 60.93 0 0 0-48.891 59.702c0 33.563 27.27 60.832 60.832 60.832 1.936 0 4.033-.161 5.97-.323v97.46c0 100.203 81.97 182.172 182.172 182.172h291.895c100.203 0 182.173-81.97 182.173-182.172v-97.46c2.259.323 4.518.323 6.777.323a60.88 60.88 0 0 0 11.94-120.534c2.098-10.972 3.227-24.203 3.227-38.403 0-8.713-.484-16.942-1.29-24.687a145.03 145.03 0 0 0 89.553-134.088c0-3.227-.162-6.455-.323-9.682a142.7 142.7 0 0 0 21.46-75.676z"/>
    <circle id="circle6" cx="352.464" cy="637.58" r="49.214" stroke-width="1.614"/>
    <circle id="circle7" cx="683.569" cy="637.58" r="49.214" stroke-width="1.614"/>
    <path id="path7" fill="#d00" stroke-width="1.614" d="M449.6 810.393h135.057v15.652H449.6z"/>
    <path id="path8" stroke-width="1.614" d="M184.168 641.936h7.261v27.592h-7.26zm656.563 0h7.26v27.592h-7.26z"/>
</svg>
